<?xml version="1.0" encoding="UTF-8" standalone="no"?>
<!-- Created with Inkscape (http://www.inkscape.org/) -->

<svg
   version="1.1"
   id="svg2"
   xml:space="preserve"
   width="1552.6962"
   height="810.74237"
   viewBox="0 0 1552.6962 810.74237"
   sodipodi:docname="a1a2tri.svg"
   inkscape:version="1.3.2 (1:1.3.2+202311252150+091e20ef0f)"
   xmlns:inkscape="http://www.inkscape.org/namespaces/inkscape"
   xmlns:sodipodi="http://sodipodi.sourceforge.net/DTD/sodipodi-0.dtd"
   xmlns="http://www.w3.org/2000/svg"
   xmlns:svg="http://www.w3.org/2000/svg"
   xmlns:rdf="http://www.w3.org/1999/02/22-rdf-syntax-ns#"
   xmlns:cc="http://creativecommons.org/ns#"
   xmlns:dc="http://purl.org/dc/elements/1.1/"><metadata
     id="metadata8"><rdf:RDF><cc:Work
         rdf:about=""><dc:format>image/svg+xml</dc:format><dc:type
           rdf:resource="http://purl.org/dc/dcmitype/StillImage" /><dc:title /></cc:Work></rdf:RDF></metadata><defs
     id="defs6"><clipPath
       clipPathUnits="userSpaceOnUse"
       id="clipPath20"><path
         d="M 13.32,46.62 H 568.08 V 601.38 H 13.32 Z"
         id="path18"
         inkscape:connector-curvature="0" /></clipPath><clipPath
       clipPathUnits="userSpaceOnUse"
       id="clipPath30"><path
         d="M 13.32,46.62 H 568.08 V 601.38 H 13.32 Z"
         id="path28"
         inkscape:connector-curvature="0" /></clipPath><clipPath
       clipPathUnits="userSpaceOnUse"
       id="clipPath40"><path
         d="M 13.32,46.62 H 568.08 V 601.38 H 13.32 Z"
         id="path38"
         inkscape:connector-curvature="0" /></clipPath><clipPath
       clipPathUnits="userSpaceOnUse"
       id="clipPath50"><path
         d="M 13.32,46.62 H 568.08 V 601.38 H 13.32 Z"
         id="path48"
         inkscape:connector-curvature="0" /></clipPath><clipPath
       clipPathUnits="userSpaceOnUse"
       id="clipPath60"><path
         d="M 13.32,46.62 H 568.08 V 601.38 H 13.32 Z"
         id="path58"
         inkscape:connector-curvature="0" /></clipPath><clipPath
       clipPathUnits="userSpaceOnUse"
       id="clipPath70"><path
         d="M 13.32,46.62 H 568.08 V 601.38 H 13.32 Z"
         id="path68"
         inkscape:connector-curvature="0" /></clipPath><clipPath
       clipPathUnits="userSpaceOnUse"
       id="clipPath80"><path
         d="M 13.32,46.62 H 568.08 V 601.38 H 13.32 Z"
         id="path78"
         inkscape:connector-curvature="0" /></clipPath><clipPath
       clipPathUnits="userSpaceOnUse"
       id="clipPath90"><path
         d="M 13.32,46.62 H 568.08 V 601.38 H 13.32 Z"
         id="path88"
         inkscape:connector-curvature="0" /></clipPath><clipPath
       clipPathUnits="userSpaceOnUse"
       id="clipPath100"><path
         d="M 13.32,46.62 H 568.08 V 601.38 H 13.32 Z"
         id="path98"
         inkscape:connector-curvature="0" /></clipPath><clipPath
       clipPathUnits="userSpaceOnUse"
       id="clipPath110"><path
         d="M 13.32,46.62 H 568.08 V 601.38 H 13.32 Z"
         id="path108"
         inkscape:connector-curvature="0" /></clipPath><clipPath
       clipPathUnits="userSpaceOnUse"
       id="clipPath120"><path
         d="m -5.5,-5.5 h 11 v 11 h -11 z"
         id="path118"
         inkscape:connector-curvature="0" /></clipPath><clipPath
       clipPathUnits="userSpaceOnUse"
       id="clipPath132"><path
         d="m -5.5,-5.5 h 11 v 11 h -11 z"
         id="path130"
         inkscape:connector-curvature="0" /></clipPath><clipPath
       clipPathUnits="userSpaceOnUse"
       id="clipPath144"><path
         d="m -5.5,-5.5 h 11 v 11 h -11 z"
         id="path142"
         inkscape:connector-curvature="0" /></clipPath></defs><sodipodi:namedview
     pagecolor="#ffffff"
     bordercolor="#666666"
     borderopacity="1"
     objecttolerance="10"
     gridtolerance="10"
     guidetolerance="10"
     inkscape:pageopacity="0"
     inkscape:pageshadow="2"
     inkscape:window-width="1191"
     inkscape:window-height="1276"
     id="namedview4"
     showgrid="false"
     inkscape:zoom="0.70342394"
     inkscape:cx="646.12529"
     inkscape:cy="578.59845"
     inkscape:window-x="324"
     inkscape:window-y="59"
     inkscape:window-maximized="0"
     inkscape:current-layer="g10"
     fit-margin-top="10"
     fit-margin-left="10"
     fit-margin-right="10"
     fit-margin-bottom="10"
     inkscape:showpageshadow="0"
     inkscape:pagecheckerboard="0"
     inkscape:deskcolor="#d1d1d1" /><g
     id="g10"
     inkscape:groupmode="layer"
     inkscape:label="a1a2"
     transform="matrix(1.3333333,0,0,-1.3333333,25.82063,836.12139)"><g
   id="g14"><g
     id="g16"
     clip-path="url(#clipPath20)"><path
       d="m 244.47,243.92729 -3.92947,-20.56269 -2.38932,-11.30337 -2.02461,-9.10236 -1.8134,-7.8627 -1.66676,-7.02742 -1.55544,-6.41133 -1.4663,-5.93099 -1.39235,-5.54209 -1.32939,-5.21845 -1.27478,-4.94342 -1.22672,-4.70584 -1.18389,-4.49783 -1.14536,-4.31368 -1.11043,-4.14915 -1.07853,-4.00097 -1.04923,-3.86658 -1.02218,-3.744 -0.99709,-3.63156 -0.97373,-3.52797 -0.95191,-3.43211 -0.93145,-3.34307 -0.9122,-3.26009 -0.89408,-3.18252 -0.87694,-3.10979 -0.86072,-3.04143 -0.84532,-2.977 -0.83068,-2.916179 -0.81675,-2.858612 -0.80345,-2.804039 -0.79075,-2.752206 -0.7786,-2.702895 -0.76696,-2.65591 -0.7558,-2.611077 -0.74509,-2.568234 -0.73478,-2.527247 -0.72487,-2.487983 -0.71531,-2.450326 -0.70612,-2.414172 -0.69723,-2.379427 -0.68865,-2.345998 -0.68036,-2.31381"
       style="fill:none;stroke:#000000;stroke-width:2.5;stroke-linecap:butt;stroke-linejoin:miter;stroke-miterlimit:10;stroke-dasharray:none;stroke-opacity:1"
       id="path22"
       inkscape:connector-curvature="0" /></g></g><g
   id="g24"><g
     id="g26"
     clip-path="url(#clipPath30)"><path
       d="m 244.47,243.92729 -17.21228,13.1233 -10.67816,6.9387 -9.19049,5.32302 -8.3251,4.35047 -7.70832,3.66162 -7.2222,3.136 -6.81646,2.71823 -6.46591,2.37789 -6.15644,2.09597 -5.87938,1.85969 -5.62897,1.6598 -5.40114,1.4894 -5.1928,1.34317 -5.0015,1.21691 -4.82526,1.10729 -4.66242,1.01161 -4.51154,0.92771 -4.37141,0.85376 -4.24095,0.78831 -4.1192,0.73016 -4.00538,0.67824 -3.89872,0.63175 -3.798609,0.58995 -3.704441,0.55224 -3.615723,0.51813 -3.531992,0.48714 -3.45284,0.45895 -3.377901,0.4332 -3.306842,0.40962 -3.239368,0.388 -3.17521,0.36809 -3.114126,0.34974 -3.055895,0.33279 -3.000321,0.31709 -2.947211,0.30253 -2.89641,0.28898 -2.847767,0.27637 -2.801133,0.26461 -2.756394,0.25362 -2.713424,0.24333 -2.672117,0.23369 -2.632382,0.22464 -2.594118,0.21614 -2.557245,0.20812 -2.521691,0.20059 -2.487368,0.19346 -2.45423,0.18674 -2.422196,0.18038 -2.391224,0.17435 -2.361247,0.16865 -2.332224,0.16323 -2.304104,0.15808 -2.276843,0.1532"
       style="fill:none;stroke:#000000;stroke-width:2.5;stroke-linecap:butt;stroke-linejoin:miter;stroke-miterlimit:10;stroke-dasharray:none;stroke-opacity:1"
       id="path32"
       inkscape:connector-curvature="0" /></g></g><g
   id="g34"><g
     id="g36"
     clip-path="url(#clipPath40)"><path
       d="m 244.47,243.92729 19.86267,6.53891 12.52261,3.36462 11.01772,2.4345 10.23598,1.79184 9.73701,1.25646 9.37468,0.76671 9.07878,0.29401 8.80526,-0.17475 8.52112,-0.64093 8.2017,-1.09409 7.83395,-1.51366 7.42046,-1.87562 6.97828,-2.162 6.53126,-2.3675 6.10109,-2.49902 5.70201,-2.57043 5.3406,-2.597 5.01774,-2.59215 4.73118,-2.56633 4.47722,-2.52714 4.25183,-2.47988 4.05113,-2.42816 3.87169,-2.3744 3.7105,-2.32015 3.56502,-2.26647 3.43312,-2.21399 3.31298,-2.16309 3.20308,-2.114 3.10214,-2.06683 3.00909,-2.02161 2.92301,-1.97833 2.84311,-1.93692 2.76872,-1.89734 2.69926,-1.8595 2.63423,-1.82332 2.57321,-1.78871 2.5158,-1.75559 2.46168,-1.72389 2.41057,-1.6935 2.36217,-1.66437 2.3163,-1.63643 2.27273,-1.60961 2.23129,-1.58382 2.19181,-1.55904 2.15414,-1.5352 2.11816,-1.51223 2.08374,-1.49012 2.05079,-1.46878 2.01919,-1.4482 1.98887,-1.42834 1.95974,-1.40914 1.93172,-1.39059 1.90475,-1.37263 1.87877,-1.35527 1.85372,-1.33845 1.82954,-1.32214 1.8062,-1.30635 1.78363,-1.29102 1.7618,-1.27614 1.74068,-1.2617 1.72022,-1.24767 1.7004,-1.23403"
       style="fill:none;stroke:#000000;stroke-width:2.5;stroke-linecap:butt;stroke-linejoin:miter;stroke-miterlimit:10;stroke-dasharray:none;stroke-opacity:1"
       id="path42"
       inkscape:connector-curvature="0" /></g></g><g
   id="g44"><g
     id="g46"
     clip-path="url(#clipPath50)"><path
       d="m 244.47,404.07271 -3.92947,20.56269 -2.38932,11.30337 -2.02461,9.10236 -1.8134,7.8627 -1.66676,7.02742 -1.55544,6.41133 -1.4663,5.93099 -1.39235,5.54209 -1.32939,5.21845 -1.27478,4.94342 -1.22672,4.70584 -1.18389,4.49783 -1.14536,4.31368 -1.11043,4.14915 -1.07853,4.00097 -1.04923,3.86658 -1.02218,3.744 -0.99709,3.63156 -0.97373,3.52797 -0.95191,3.43211 -0.93145,3.34307 -0.9122,3.26009 -0.89408,3.18252 -0.87694,3.10979 -0.86072,3.04143 -0.84532,2.977 -0.83068,2.91618 -0.81675,2.85861 -0.80345,2.80404 -0.79075,2.75221 -0.7786,2.70289 -0.76696,2.65591 -0.7558,2.61108 -0.74509,2.56823 -0.73478,2.52725 -0.72487,2.48798 -0.71531,2.45033 -0.70612,2.41417 -0.69723,2.37943 -0.68865,2.34599 -0.68036,2.31381"
       style="fill:none;stroke:#000000;stroke-width:2.5;stroke-linecap:butt;stroke-linejoin:miter;stroke-miterlimit:10;stroke-dasharray:none;stroke-opacity:1"
       id="path52"
       inkscape:connector-curvature="0" /></g></g><g
   id="g54"><g
     id="g56"
     clip-path="url(#clipPath60)"><path
       d="m 244.47,404.07271 19.86267,-6.53891 12.52261,-3.36462 11.01772,-2.43451 10.23598,-1.79183 9.73701,-1.25646 9.37468,-0.76671 9.07878,-0.29401 8.80526,0.17475 8.52112,0.64093 8.2017,1.09408 7.83395,1.51367 7.42046,1.87562 6.97828,2.162 6.53126,2.36749 6.10109,2.49902 5.70201,2.57043 5.3406,2.59701 5.01774,2.59215 4.73118,2.56633 4.47722,2.52713 4.25183,2.47989 4.05113,2.42816 3.87169,2.37439 3.7105,2.32016 3.56502,2.26647 3.43312,2.21399 3.31298,2.16309 3.20308,2.114 3.10214,2.06683 3.00909,2.02161 2.92301,1.97832 2.84311,1.93693 2.76872,1.89734 2.69926,1.8595 2.63423,1.82332 2.57321,1.78871 2.5158,1.75559 2.46168,1.72388 2.41057,1.69351 2.36217,1.66437 2.3163,1.63643 2.27273,1.60961 2.23129,1.58382 2.19181,1.55904 2.15414,1.5352 2.11816,1.51223 2.08374,1.49012 2.05079,1.46878 2.01919,1.4482 1.98887,1.42834 1.95974,1.40914 1.93172,1.39059 1.90475,1.37263 1.87877,1.35527 1.85372,1.33845 1.82954,1.32214 1.8062,1.30635 1.78363,1.29101 1.7618,1.27615 1.74068,1.2617 1.72022,1.24767 1.7004,1.23403"
       style="fill:none;stroke:#000000;stroke-width:2.5;stroke-linecap:butt;stroke-linejoin:miter;stroke-miterlimit:10;stroke-dasharray:none;stroke-opacity:1"
       id="path62"
       inkscape:connector-curvature="0" /></g></g><g
   id="g64"><g
     id="g66"
     clip-path="url(#clipPath70)"><path
       d="m 244.47,404.07271 -17.21228,-13.1233 -10.67816,-6.9387 -9.19049,-5.32302 -8.3251,-4.35047 -7.70832,-3.66162 -7.2222,-3.136 -6.81646,-2.71823 -6.46591,-2.37789 -6.15644,-2.09597 -5.87938,-1.85969 -5.62897,-1.6598 -5.40114,-1.4894 -5.1928,-1.34317 -5.0015,-1.21691 -4.82526,-1.10729 -4.66242,-1.01161 -4.51154,-0.92771 -4.37141,-0.85376 -4.24095,-0.78832 -4.1192,-0.73014 -4.00538,-0.67825 -3.89872,-0.63175 -3.798609,-0.58995 -3.704441,-0.55224 -3.615723,-0.51813 -3.531992,-0.48715 -3.45284,-0.45894 -3.377901,-0.4332 -3.306842,-0.40962 -3.239368,-0.388 -3.17521,-0.36809 -3.114126,-0.34974 -3.055895,-0.33279 -3.000321,-0.31709 -2.947211,-0.30253 -2.89641,-0.28898 -2.847767,-0.27637 -2.801133,-0.26461 -2.756394,-0.25362 -2.713424,-0.24333 -2.672117,-0.23369 -2.632382,-0.22464 -2.594118,-0.21614 -2.557245,-0.20812 -2.521691,-0.20059 -2.487368,-0.19346 -2.45423,-0.18674 -2.422196,-0.18038 -2.391224,-0.17435 -2.361247,-0.16865 -2.332224,-0.16323 -2.304104,-0.15808 -2.276843,-0.1532"
       style="fill:none;stroke:#000000;stroke-width:2.5;stroke-linecap:butt;stroke-linejoin:miter;stroke-miterlimit:10;stroke-dasharray:none;stroke-opacity:1"
       id="path72"
       inkscape:connector-curvature="0" /></g></g><g
   id="g74"><g
     id="g76"
     clip-path="url(#clipPath80)"><path
       d="m 383.16,324 11.39978,18.10704 6.97543,9.82907 5.93343,7.81461 5.32636,6.66636 4.90108,5.88737 4.57513,5.31094 4.31175,4.86126 4.09145,4.49763 3.90263,4.19583 3.73788,3.9403 3.59213,3.72051 3.46176,3.52901 3.34411,3.36036 3.23715,3.21049 3.13928,3.07626 3.04925,2.95522 2.96605,2.84542 2.88882,2.74528 2.81688,2.65353 2.74966,2.56909 2.68663,2.49109 2.6274,2.41878 2.57158,2.35154 2.51886,2.2888 2.46898,2.23014 2.42167,2.17512 2.37674,2.12341 2.33399,2.07471 2.29325,2.02874 2.25436,1.98528 2.2172,1.9441 2.18165,1.90504 2.14758,1.8679 2.1149,1.83257 2.08353,1.79888 2.05337,1.76674 2.02436,1.73603 1.99642,1.70664 1.96948,1.6785 1.94351,1.65152 1.91842,1.62562 1.89419,1.60075 1.87075,1.57682 1.84809,1.55379 1.82613,1.53162"
       style="fill:none;stroke:#000000;stroke-width:2.5;stroke-linecap:butt;stroke-linejoin:miter;stroke-miterlimit:10;stroke-dasharray:none;stroke-opacity:1"
       id="path82"
       inkscape:connector-curvature="0" /></g></g><g
   id="g84"><g
     id="g86"
     clip-path="url(#clipPath90)"><path
       d="m 383.16,324 11.39978,-18.10704 6.97543,-9.82907 5.93343,-7.81461 5.32636,-6.66636 4.90108,-5.88737 4.57513,-5.31094 4.31175,-4.86126 4.09145,-4.49763 3.90263,-4.19583 3.73788,-3.9403 3.59213,-3.72051 3.46176,-3.52901 3.34411,-3.36036 3.23715,-3.21049 3.13928,-3.07626 3.04925,-2.95522 2.96605,-2.84542 2.88882,-2.74528 2.81688,-2.65353 2.74966,-2.56909 2.68663,-2.49109 2.6274,-2.41879 2.57158,-2.35153 2.51886,-2.2888 2.46898,-2.23014 2.42167,-2.17512 2.37674,-2.12341 2.33399,-2.07471 2.29325,-2.02874 2.25436,-1.98528 2.2172,-1.94411 2.18165,-1.90503 2.14758,-1.8679 2.1149,-1.83257 2.08353,-1.79888 2.05337,-1.76674 2.02436,-1.73603 1.99642,-1.70664 1.96948,-1.6785 1.94351,-1.65152 1.91842,-1.62562 1.89419,-1.60075 1.87075,-1.57682 1.84809,-1.55379 1.82613,-1.53162"
       style="fill:none;stroke:#000000;stroke-width:2.5;stroke-linecap:butt;stroke-linejoin:miter;stroke-miterlimit:10;stroke-dasharray:none;stroke-opacity:1"
       id="path92"
       inkscape:connector-curvature="0" /></g></g><g
   id="g94"><g
     id="g96"
     clip-path="url(#clipPath100)"><path
       d="m 383.16,324 h -19.16506 -12.10162 -10.72624 -10.08253 -9.74282 -9.56607 -9.48558 -9.46002 -9.45673 -9.44512 -9.39577 -9.28328 -9.09202 -8.82076 -8.4827 -8.10021 -7.69753 -7.29509 -6.90725 -6.54242 -6.20454 -5.89452 -5.61149 -5.35366 -5.11883 -4.90474 -4.70922 -4.53023 -4.36596 -4.21481 -4.07533 -3.9463 -3.82659 -3.71526 -3.61148 -3.51448 -3.42364 -3.33838 -3.25819 -3.18263 -3.11129 H 99.355784 96.375855 93.456556 90.594864 87.787977 85.033314 82.328473 79.671216 77.059467 74.491285 71.964853 69.478476 67.030565 64.619617 62.244245 59.903111 57.594982 55.318673 53.073082 50.857155 48.669899 46.510373 44.37768 42.270978 40.189452 38.132343 36.098912 34.08847 32.100345 30.13391 28.188551 26.263694 24.358791 22.473299 20.606713 18.758553 16.928343 15.115632 13.32"
       style="fill:none;stroke:#000000;stroke-width:2.5;stroke-linecap:butt;stroke-linejoin:miter;stroke-miterlimit:10;stroke-dasharray:none;stroke-opacity:1"
       id="path102"
       inkscape:connector-curvature="0" /></g></g><g
   id="g104"><g
     id="g106"
     clip-path="url(#clipPath110)"><g
       id="g112"
       transform="translate(244.47,243.92729)"><g
         id="g114"><g
           id="g116"
           clip-path="url(#clipPath120)"><path
             d="M -2.5,-5 0,-2.5 2.5,-5 5,-2.5 2.5,0 5,2.5 2.5,5 0,2.5 -2.5,5 -5,2.5 -2.5,0 -5,-2.5 Z"
             style="fill:#ffa500;fill-opacity:1;fill-rule:nonzero;stroke:#ffa500;stroke-width:1;stroke-linecap:butt;stroke-linejoin:round;stroke-miterlimit:10;stroke-dasharray:none;stroke-opacity:1"
             id="path122"
             inkscape:connector-curvature="0" /></g></g><g
         id="g124"
         transform="translate(0,160.14542)"><g
           id="g126"><g
             id="g128"
             clip-path="url(#clipPath132)"><path
               d="M -2.5,-5 0,-2.5 2.5,-5 5,-2.5 2.5,0 5,2.5 2.5,5 0,2.5 -2.5,5 -5,2.5 -2.5,0 -5,-2.5 Z"
               style="fill:#ffa500;fill-opacity:1;fill-rule:nonzero;stroke:#ffa500;stroke-width:1;stroke-linecap:butt;stroke-linejoin:round;stroke-miterlimit:10;stroke-dasharray:none;stroke-opacity:1"
               id="path134"
               inkscape:connector-curvature="0" /></g></g><g
           id="g136"
           transform="translate(138.69,-80.072709)"><g
             id="g138"><g
               id="g140"
               clip-path="url(#clipPath144)"><path
                 d="M -2.5,-5 0,-2.5 2.5,-5 5,-2.5 2.5,0 5,2.5 2.5,5 0,2.5 -2.5,5 -5,2.5 -2.5,0 -5,-2.5 Z"
                 style="fill:#ffa500;fill-opacity:1;fill-rule:nonzero;stroke:#ffa500;stroke-width:1;stroke-linecap:butt;stroke-linejoin:round;stroke-miterlimit:10;stroke-dasharray:none;stroke-opacity:1"
                 id="path146"
                 inkscape:connector-curvature="0" /></g></g></g></g></g></g></g><path
   style="fill:none;fill-rule:evenodd;stroke:#ff8c8c;stroke-width:3.00000008;stroke-linecap:butt;stroke-linejoin:miter;stroke-miterlimit:4;stroke-dasharray:none;stroke-opacity:1"
   d="M 689.97324,324.00004 1111.3384,460.9099"
   id="path1109"
   inkscape:connector-curvature="0" /><path
   style="fill:none;fill-rule:evenodd;stroke:#8d8dff;stroke-width:3;stroke-linecap:butt;stroke-linejoin:miter;stroke-miterlimit:4;stroke-dasharray:none;stroke-opacity:1;font-variant-east_asian:normal;opacity:1;vector-effect:none;fill-opacity:1;stroke-dashoffset:0"
   d="M 1111.3384,187.09016 689.97324,324.00004"
   id="path1111"
   inkscape:connector-curvature="0" /><path
   sodipodi:type="star"
   style="color:#000000;clip-rule:nonzero;display:inline;overflow:visible;visibility:visible;opacity:1;isolation:auto;mix-blend-mode:normal;color-interpolation:sRGB;color-interpolation-filters:linearRGB;solid-color:#000000;solid-opacity:1;vector-effect:none;fill:none;fill-opacity:1;fill-rule:evenodd;stroke:#000000;stroke-width:3.00000008;stroke-linecap:butt;stroke-linejoin:miter;stroke-miterlimit:4;stroke-dasharray:none;stroke-dashoffset:0;stroke-opacity:1;marker:none;color-rendering:auto;image-rendering:auto;shape-rendering:auto;text-rendering:auto;enable-background:accumulate"
   id="path1049"
   sodipodi:sides="5"
   sodipodi:cx="922.89819"
   sodipodi:cy="-324.00003"
   sodipodi:r1="232.92499"
   sodipodi:r2="188.44028"
   sodipodi:arg1="3.1415927"
   sodipodi:arg2="3.7699112"
   inkscape:flatsided="true"
   inkscape:rounded="0"
   inkscape:randomized="0"
   d="m 689.97321,-324.00004 160.94721,-221.52482 260.41808,84.61497 0,273.81974 -260.4181,84.61494 z"
   transform="scale(1,-1)"
   inkscape:transform-center-x="29.656474"
   inkscape:transform-center-y="-3.6604917e-06" /><text
   xml:space="preserve"
   style="font-style:normal;font-variant:normal;font-weight:normal;font-stretch:normal;font-size:33.1792px;line-height:100%;font-family:'Source Serif Pro';-inkscape-font-specification:'Source Serif Pro';text-align:start;letter-spacing:0px;word-spacing:0px;writing-mode:lr-tb;text-anchor:start;fill:#000000;fill-opacity:1;stroke:none;stroke-width:1.89595px;stroke-linecap:butt;stroke-linejoin:miter;stroke-opacity:1"
   x="1122.7594"
   y="-463.80286"
   id="text1057"
   transform="scale(1,-1)"><tspan
     sodipodi:role="line"
     id="tspan1055"
     x="1122.7594"
     y="-463.80286"
     style="font-style:normal;font-variant:normal;font-weight:normal;font-stretch:normal;font-family:'Source Sans Pro';-inkscape-font-specification:'Source Sans Pro';stroke-width:1.89595px">1</tspan></text>

<text
   xml:space="preserve"
   style="font-style:normal;font-variant:normal;font-weight:normal;font-stretch:normal;font-size:33.1792px;line-height:100%;font-family:'Source Serif Pro';-inkscape-font-specification:'Source Serif Pro';text-align:start;letter-spacing:0px;word-spacing:0px;writing-mode:lr-tb;text-anchor:start;fill:#000000;fill-opacity:1;stroke:none;stroke-width:1.89595px;stroke-linecap:butt;stroke-linejoin:miter;stroke-opacity:1"
   x="831.58276"
   y="-556.64136"
   id="text1057-1"
   transform="scale(1,-1)"><tspan
     sodipodi:role="line"
     id="tspan1055-9"
     x="831.58276"
     y="-556.64136"
     style="font-style:normal;font-variant:normal;font-weight:normal;font-stretch:normal;font-family:'Source Sans Pro';-inkscape-font-specification:'Source Sans Pro';stroke-width:1.89595px">2</tspan></text>

<text
   xml:space="preserve"
   style="font-style:normal;font-variant:normal;font-weight:normal;font-stretch:normal;font-size:33.1792px;line-height:100%;font-family:'Source Serif Pro';-inkscape-font-specification:'Source Serif Pro';text-align:start;letter-spacing:0px;word-spacing:0px;writing-mode:lr-tb;text-anchor:start;fill:#000000;fill-opacity:1;stroke:none;stroke-width:1.89595px;stroke-linecap:butt;stroke-linejoin:miter;stroke-opacity:1"
   x="665.25354"
   y="-313.41589"
   id="text1057-6"
   transform="scale(1,-1)"><tspan
     sodipodi:role="line"
     id="tspan1055-7"
     x="665.25354"
     y="-313.41589"
     style="font-style:normal;font-variant:normal;font-weight:normal;font-stretch:normal;font-family:'Source Sans Pro';-inkscape-font-specification:'Source Sans Pro';stroke-width:1.89595px">3</tspan></text>

<text
   xml:space="preserve"
   style="font-style:normal;font-variant:normal;font-weight:normal;font-stretch:normal;font-size:33.1792px;line-height:100%;font-family:'Source Serif Pro';-inkscape-font-specification:'Source Serif Pro';text-align:start;letter-spacing:0px;word-spacing:0px;writing-mode:lr-tb;text-anchor:start;fill:#000000;fill-opacity:1;stroke:none;stroke-width:1.89595px;stroke-linecap:butt;stroke-linejoin:miter;stroke-opacity:1"
   x="831.58276"
   y="-76.845329"
   id="text1057-10"
   transform="scale(1,-1)"><tspan
     sodipodi:role="line"
     id="tspan1055-1"
     x="831.58276"
     y="-76.845329"
     style="font-style:normal;font-variant:normal;font-weight:normal;font-stretch:normal;font-family:'Source Sans Pro';-inkscape-font-specification:'Source Sans Pro';stroke-width:1.89595px">4</tspan></text>

<text
   xml:space="preserve"
   style="font-style:normal;font-variant:normal;font-weight:normal;font-stretch:normal;font-size:33.1792px;line-height:100%;font-family:'Source Serif Pro';-inkscape-font-specification:'Source Serif Pro';text-align:start;letter-spacing:0px;word-spacing:0px;writing-mode:lr-tb;text-anchor:start;fill:#000000;fill-opacity:1;stroke:none;stroke-width:1.89595px;stroke-linecap:butt;stroke-linejoin:miter;stroke-opacity:1"
   x="1122.7593"
   y="-167.47348"
   id="text1057-9"
   transform="scale(1,-1)"><tspan
     sodipodi:role="line"
     id="tspan1055-94"
     x="1122.7593"
     y="-167.47348"
     style="font-style:normal;font-variant:normal;font-weight:normal;font-stretch:normal;font-family:'Source Sans Pro';-inkscape-font-specification:'Source Sans Pro';stroke-width:1.89595px">5</tspan></text>

<text
   xml:space="preserve"
   style="font-style:normal;font-variant:normal;font-weight:normal;font-stretch:normal;font-size:33.1792px;line-height:100%;font-family:'Source Serif Pro';-inkscape-font-specification:'Source Serif Pro';text-align:start;letter-spacing:0px;word-spacing:0px;writing-mode:lr-tb;text-anchor:start;fill:#000000;fill-opacity:1;stroke:none;stroke-width:1.89595px;stroke-linecap:butt;stroke-linejoin:miter;stroke-opacity:1"
   x="533.60968"
   y="-490.25912"
   id="text1057-67"
   transform="scale(1,-1)"><tspan
     sodipodi:role="line"
     id="tspan1055-2"
     x="533.60968"
     y="-490.25912"
     style="font-style:normal;font-variant:normal;font-weight:normal;font-stretch:normal;font-family:'Source Sans Pro';-inkscape-font-specification:'Source Sans Pro';stroke-width:1.89595px">1</tspan></text>

<text
   xml:space="preserve"
   style="font-style:normal;font-variant:normal;font-weight:normal;font-stretch:normal;font-size:33.1792px;line-height:100%;font-family:'Source Serif Pro';-inkscape-font-specification:'Source Serif Pro';text-align:start;letter-spacing:0px;word-spacing:0px;writing-mode:lr-tb;text-anchor:start;fill:#000000;fill-opacity:1;stroke:none;stroke-width:1.89595px;stroke-linecap:butt;stroke-linejoin:miter;stroke-opacity:1"
   x="174.92537"
   y="-598.0246"
   id="text1057-1-7"
   transform="scale(1,-1)"><tspan
     sodipodi:role="line"
     id="tspan1055-9-4"
     x="174.92537"
     y="-598.0246"
     style="font-style:normal;font-variant:normal;font-weight:normal;font-stretch:normal;font-family:'Source Sans Pro';-inkscape-font-specification:'Source Sans Pro';stroke-width:1.89595px">2</tspan></text>

<text
   xml:space="preserve"
   style="font-style:normal;font-variant:normal;font-weight:normal;font-stretch:normal;font-size:33.1792px;line-height:100%;font-family:'Source Serif Pro';-inkscape-font-specification:'Source Serif Pro';text-align:start;letter-spacing:0px;word-spacing:0px;writing-mode:lr-tb;text-anchor:start;fill:#000000;fill-opacity:1;stroke:none;stroke-width:1.89595px;stroke-linecap:butt;stroke-linejoin:miter;stroke-opacity:1"
   x="-12.728131"
   y="-312.15063"
   id="text1057-6-1"
   transform="scale(1,-1)"><tspan
     sodipodi:role="line"
     id="tspan1055-7-0"
     x="-12.728131"
     y="-312.15063"
     style="font-style:normal;font-variant:normal;font-weight:normal;font-stretch:normal;font-family:'Source Sans Pro';-inkscape-font-specification:'Source Sans Pro';stroke-width:1.89595px">3</tspan></text>

<text
   xml:space="preserve"
   style="font-style:normal;font-variant:normal;font-weight:normal;font-stretch:normal;font-size:33.1792px;line-height:100%;font-family:'Source Serif Pro';-inkscape-font-specification:'Source Serif Pro';text-align:start;letter-spacing:0px;word-spacing:0px;writing-mode:lr-tb;text-anchor:start;fill:#000000;fill-opacity:1;stroke:none;stroke-width:1.89595px;stroke-linecap:butt;stroke-linejoin:miter;stroke-opacity:1"
   x="174.95854"
   y="-26.534256"
   id="text1057-10-0"
   transform="scale(1,-1)"><tspan
     sodipodi:role="line"
     id="tspan1055-1-6"
     x="174.95854"
     y="-26.534256"
     style="font-style:normal;font-variant:normal;font-weight:normal;font-stretch:normal;font-family:'Source Sans Pro';-inkscape-font-specification:'Source Sans Pro';stroke-width:1.89595px">4</tspan></text>

<text
   xml:space="preserve"
   style="font-style:normal;font-variant:normal;font-weight:normal;font-stretch:normal;font-size:33.1792px;line-height:100%;font-family:'Source Serif Pro';-inkscape-font-specification:'Source Serif Pro';text-align:start;letter-spacing:0px;word-spacing:0px;writing-mode:lr-tb;text-anchor:start;fill:#000000;fill-opacity:1;stroke:none;stroke-width:1.89595px;stroke-linecap:butt;stroke-linejoin:miter;stroke-opacity:1"
   x="534.3396"
   y="-149.1488"
   id="text1057-9-4"
   transform="scale(1,-1)"><tspan
     sodipodi:role="line"
     id="tspan1055-94-4"
     x="534.3396"
     y="-149.1488"
     style="font-style:normal;font-variant:normal;font-weight:normal;font-stretch:normal;font-family:'Source Sans Pro';-inkscape-font-specification:'Source Sans Pro';stroke-width:1.89595px">5</tspan></text>

</g></svg>
